<svg width="95" height="30" viewBox="0 0 95 30" fill="none" xmlns="http://www.w3.org/2000/svg">
<path d="M4.68477 9.67785C3.90077 9.67785 3.18477 9.48985 2.53677 9.11385C1.89677 8.73785 1.38877 8.22585 1.01277 7.57785C0.644766 6.92985 0.460766 6.21785 0.460766 5.44185C0.460766 4.66585 0.644766 3.95385 1.01277 3.30585C1.38877 2.65785 1.90077 2.14585 2.54877 1.76985C3.19677 1.39385 3.91677 1.20585 4.70877 1.20585C5.50077 1.20585 6.21677 1.38985 6.85677 1.75785C7.50477 2.12585 8.01277 2.63385 8.38077 3.28185C8.74877 3.92185 8.93277 4.63385 8.93277 5.41785C8.93277 6.20185 8.74477 6.92185 8.36877 7.57785C7.99277 8.22585 7.48077 8.73785 6.83277 9.11385C6.18477 9.48985 5.46877 9.67785 4.68477 9.67785ZM4.68477 9.13785C5.37277 9.13785 5.99677 8.97385 6.55677 8.64585C7.11677 8.31785 7.55677 7.86985 7.87677 7.30185C8.20477 6.73385 8.36877 6.10585 8.36877 5.41785C8.36877 4.72985 8.20877 4.10585 7.88877 3.54585C7.57677 2.98585 7.14077 2.54585 6.58077 2.22585C6.02877 1.90585 5.40477 1.74585 4.70877 1.74585C4.02077 1.74585 3.39277 1.90985 2.82477 2.23785C2.26477 2.56585 1.82477 3.01385 1.50477 3.58185C1.18477 4.14185 1.02477 4.76185 1.02477 5.44185C1.02477 6.12185 1.18477 6.74585 1.50477 7.31385C1.82477 7.87385 2.26477 8.31785 2.82477 8.64585C3.38477 8.97385 4.00477 9.13785 4.68477 9.13785ZM4.81677 7.91385C4.32877 7.91385 3.89277 7.80985 3.50877 7.60185C3.12477 7.39385 2.82477 7.10185 2.60877 6.72585C2.39277 6.34985 2.28477 5.92185 2.28477 5.44185C2.28477 4.96185 2.39277 4.53385 2.60877 4.15785C2.82477 3.78185 3.12477 3.48985 3.50877 3.28185C3.89277 3.07385 4.32877 2.96985 4.81677 2.96985C5.23277 2.96985 5.61277 3.05785 5.95677 3.23385C6.30077 3.40985 6.56877 3.64585 6.76077 3.94185L6.07677 4.43385C5.78877 4.00185 5.36477 3.78585 4.80477 3.78585C4.34077 3.78585 3.95677 3.93785 3.65277 4.24185C3.34877 4.54585 3.19677 4.94585 3.19677 5.44185C3.19677 5.93785 3.34877 6.33785 3.65277 6.64185C3.95677 6.94585 4.34077 7.09785 4.80477 7.09785C5.36477 7.09785 5.78877 6.88185 6.07677 6.44985L6.76077 6.92985C6.56877 7.23385 6.30077 7.47385 5.95677 7.64985C5.61277 7.82585 5.23277 7.91385 4.81677 7.91385ZM19.2085 8.59785V9.64185H13.1725V8.82585L16.5925 5.52585C17.0085 5.12585 17.2885 4.78185 17.4325 4.49385C17.5765 4.19785 17.6485 3.90185 17.6485 3.60585C17.6485 3.16585 17.4925 2.82585 17.1805 2.58585C16.8765 2.33785 16.4365 2.21385 15.8605 2.21385C14.9325 2.21385 14.2165 2.51785 13.7125 3.12585L12.8965 2.41785C13.2245 2.01785 13.6525 1.70585 14.1805 1.48185C14.7165 1.25785 15.3125 1.14585 15.9685 1.14585C16.8485 1.14585 17.5485 1.35785 18.0685 1.78185C18.5885 2.19785 18.8485 2.76585 18.8485 3.48585C18.8485 3.93385 18.7525 4.35785 18.5605 4.75785C18.3685 5.15785 18.0045 5.61385 17.4685 6.12585L14.9005 8.59785H19.2085ZM23.592 9.73785C22.928 9.73785 22.336 9.56985 21.816 9.23385C21.304 8.88985 20.9 8.39385 20.604 7.74585C20.308 7.09785 20.16 6.32985 20.16 5.44185C20.16 4.55385 20.308 3.78585 20.604 3.13785C20.9 2.48985 21.304 1.99785 21.816 1.66185C22.336 1.31785 22.928 1.14585 23.592 1.14585C24.248 1.14585 24.832 1.31785 25.344 1.66185C25.864 1.99785 26.272 2.48985 26.568 3.13785C26.864 3.78585 27.012 4.55385 27.012 5.44185C27.012 6.32985 26.864 7.09785 26.568 7.74585C26.272 8.39385 25.864 8.88985 25.344 9.23385C24.832 9.56985 24.248 9.73785 23.592 9.73785ZM23.592 8.66985C24.264 8.66985 24.8 8.39385 25.2 7.84185C25.608 7.28985 25.812 6.48985 25.812 5.44185C25.812 4.39385 25.608 3.59385 25.2 3.04185C24.8 2.48985 24.264 2.21385 23.592 2.21385C22.912 2.21385 22.368 2.48985 21.96 3.04185C21.56 3.59385 21.36 4.39385 21.36 5.44185C21.36 6.48985 21.56 7.28985 21.96 7.84185C22.368 8.39385 22.912 8.66985 23.592 8.66985ZM34.0327 8.59785V9.64185H27.9967V8.82585L31.4167 5.52585C31.8327 5.12585 32.1127 4.78185 32.2567 4.49385C32.4007 4.19785 32.4727 3.90185 32.4727 3.60585C32.4727 3.16585 32.3167 2.82585 32.0047 2.58585C31.7007 2.33785 31.2607 2.21385 30.6847 2.21385C29.7567 2.21385 29.0407 2.51785 28.5367 3.12585L27.7207 2.41785C28.0487 2.01785 28.4767 1.70585 29.0047 1.48185C29.5407 1.25785 30.1367 1.14585 30.7927 1.14585C31.6727 1.14585 32.3727 1.35785 32.8927 1.78185C33.4127 2.19785 33.6727 2.76585 33.6727 3.48585C33.6727 3.93385 33.5767 4.35785 33.3847 4.75785C33.1927 5.15785 32.8287 5.61385 32.2927 6.12585L29.7247 8.59785H34.0327ZM38.4162 9.73785C37.7522 9.73785 37.1602 9.56985 36.6402 9.23385C36.1282 8.88985 35.7242 8.39385 35.4282 7.74585C35.1322 7.09785 34.9842 6.32985 34.9842 5.44185C34.9842 4.55385 35.1322 3.78585 35.4282 3.13785C35.7242 2.48985 36.1282 1.99785 36.6402 1.66185C37.1602 1.31785 37.7522 1.14585 38.4162 1.14585C39.0722 1.14585 39.6562 1.31785 40.1682 1.66185C40.6882 1.99785 41.0962 2.48985 41.3922 3.13785C41.6882 3.78585 41.8362 4.55385 41.8362 5.44185C41.8362 6.32985 41.6882 7.09785 41.3922 7.74585C41.0962 8.39385 40.6882 8.88985 40.1682 9.23385C39.6562 9.56985 39.0722 9.73785 38.4162 9.73785ZM38.4162 8.66985C39.0882 8.66985 39.6242 8.39385 40.0242 7.84185C40.4322 7.28985 40.6362 6.48985 40.6362 5.44185C40.6362 4.39385 40.4322 3.59385 40.0242 3.04185C39.6242 2.48985 39.0882 2.21385 38.4162 2.21385C37.7362 2.21385 37.1922 2.48985 36.7842 3.04185C36.3842 3.59385 36.1842 4.39385 36.1842 5.44185C36.1842 6.48985 36.3842 7.28985 36.7842 7.84185C37.1922 8.39385 37.7362 8.66985 38.4162 8.66985ZM49.6308 5.90985L48.0948 7.46985V9.64185H46.8948V1.24185H48.0948V5.93385L52.6548 1.24185H54.0228L50.4348 5.02185L54.2508 9.64185H52.8468L49.6308 5.90985ZM57.5154 3.22185C58.3954 3.22185 59.0674 3.43785 59.5314 3.86985C60.0034 4.30185 60.2394 4.94585 60.2394 5.80185V9.64185H59.1474V8.80185C58.9554 9.09785 58.6794 9.32585 58.3194 9.48585C57.9674 9.63785 57.5474 9.71385 57.0594 9.71385C56.3474 9.71385 55.7754 9.54185 55.3434 9.19785C54.9194 8.85385 54.7074 8.40185 54.7074 7.84185C54.7074 7.28185 54.9114 6.83385 55.3194 6.49785C55.7274 6.15385 56.3754 5.98185 57.2634 5.98185H59.0874V5.75385C59.0874 5.25785 58.9434 4.87785 58.6554 4.61385C58.3674 4.34985 57.9434 4.21785 57.3834 4.21785C57.0074 4.21785 56.6394 4.28185 56.2794 4.40985C55.9194 4.52985 55.6154 4.69385 55.3674 4.90185L54.8874 4.03785C55.2154 3.77385 55.6074 3.57385 56.0634 3.43785C56.5194 3.29385 57.0034 3.22185 57.5154 3.22185ZM57.2514 8.82585C57.6914 8.82585 58.0714 8.72985 58.3914 8.53785C58.7114 8.33785 58.9434 8.05785 59.0874 7.69785V6.80985H57.3114C56.3354 6.80985 55.8474 7.13785 55.8474 7.79385C55.8474 8.11385 55.9714 8.36585 56.2194 8.54985C56.4674 8.73385 56.8114 8.82585 57.2514 8.82585ZM64.1953 9.71385C63.6753 9.71385 63.1753 9.64585 62.6953 9.50985C62.2153 9.36585 61.8393 9.18585 61.5673 8.96985L62.0473 8.05785C62.3273 8.25785 62.6673 8.41785 63.0673 8.53785C63.4673 8.65785 63.8713 8.71785 64.2793 8.71785C65.2873 8.71785 65.7913 8.42985 65.7913 7.85385C65.7913 7.66185 65.7233 7.50985 65.5873 7.39785C65.4513 7.28585 65.2793 7.20585 65.0713 7.15785C64.8713 7.10185 64.5833 7.04185 64.2073 6.97785C63.6953 6.89785 63.2753 6.80585 62.9473 6.70185C62.6273 6.59785 62.3513 6.42185 62.1193 6.17385C61.8873 5.92585 61.7713 5.57785 61.7713 5.12985C61.7713 4.55385 62.0113 4.09385 62.4913 3.74985C62.9713 3.39785 63.6153 3.22185 64.4233 3.22185C64.8473 3.22185 65.2713 3.27385 65.6953 3.37785C66.1193 3.48185 66.4673 3.62185 66.7393 3.79785L66.2473 4.70985C65.7273 4.37385 65.1153 4.20585 64.4113 4.20585C63.9233 4.20585 63.5513 4.28585 63.2953 4.44585C63.0393 4.60585 62.9113 4.81785 62.9113 5.08185C62.9113 5.28985 62.9833 5.45385 63.1273 5.57385C63.2713 5.69385 63.4473 5.78185 63.6553 5.83785C63.8713 5.89385 64.1713 5.95785 64.5553 6.02985C65.0673 6.11785 65.4793 6.21385 65.7913 6.31785C66.1113 6.41385 66.3833 6.58185 66.6073 6.82185C66.8313 7.06185 66.9433 7.39785 66.9433 7.82985C66.9433 8.40585 66.6953 8.86585 66.1993 9.20985C65.7113 9.54585 65.0433 9.71385 64.1953 9.71385ZM70.699 3.22185C71.579 3.22185 72.251 3.43785 72.715 3.86985C73.187 4.30185 73.423 4.94585 73.423 5.80185V9.64185H72.331V8.80185C72.139 9.09785 71.863 9.32585 71.503 9.48585C71.151 9.63785 70.731 9.71385 70.243 9.71385C69.531 9.71385 68.959 9.54185 68.527 9.19785C68.103 8.85385 67.891 8.40185 67.891 7.84185C67.891 7.28185 68.095 6.83385 68.503 6.49785C68.911 6.15385 69.559 5.98185 70.447 5.98185H72.271V5.75385C72.271 5.25785 72.127 4.87785 71.839 4.61385C71.551 4.34985 71.127 4.21785 70.567 4.21785C70.191 4.21785 69.823 4.28185 69.463 4.40985C69.103 4.52985 68.799 4.69385 68.551 4.90185L68.071 4.03785C68.399 3.77385 68.791 3.57385 69.247 3.43785C69.703 3.29385 70.187 3.22185 70.699 3.22185ZM70.435 8.82585C70.875 8.82585 71.255 8.72985 71.575 8.53785C71.895 8.33785 72.127 8.05785 72.271 7.69785V6.80985H70.495C69.519 6.80985 69.031 7.13785 69.031 7.79385C69.031 8.11385 69.155 8.36585 69.403 8.54985C69.651 8.73385 69.995 8.82585 70.435 8.82585ZM75.8309 9.71385C75.6069 9.71385 75.4149 9.63785 75.2549 9.48585C75.0949 9.32585 75.0149 9.12585 75.0149 8.88585C75.0149 8.65385 75.0949 8.46185 75.2549 8.30985C75.4149 8.14985 75.6069 8.06985 75.8309 8.06985C76.0549 8.06985 76.2429 8.14585 76.3949 8.29785C76.5469 8.44985 76.6229 8.64585 76.6229 8.88585C76.6229 9.12585 76.5429 9.32585 76.3829 9.48585C76.2309 9.63785 76.0469 9.71385 75.8309 9.71385ZM87.0163 7.54185H82.5523L81.6283 9.64185H80.3923L84.1963 1.24185H85.3843L89.2003 9.64185H87.9403L87.0163 7.54185ZM86.5963 6.58185L84.7843 2.46585L82.9723 6.58185H86.5963ZM90.2854 0.737845H91.4374V9.64185H90.2854V0.737845ZM93.6369 0.737845H94.7889V9.64185H93.6369V0.737845ZM4.34248 21.3498C4.54248 20.9818 4.83848 20.7018 5.23048 20.5098C5.62248 20.3178 6.09848 20.2218 6.65848 20.2218V21.3378C6.59448 21.3298 6.50648 21.3258 6.39448 21.3258C5.77048 21.3258 5.27848 21.5138 4.91848 21.8898C4.56648 22.2578 4.39048 22.7858 4.39048 23.4738V26.6418H3.23848V20.2818H4.34248V21.3498ZM8.07833 20.2818H9.23033V26.6418H8.07833V20.2818ZM8.65433 19.0578C8.43033 19.0578 8.24233 18.9858 8.09033 18.8418C7.94633 18.6978 7.87433 18.5218 7.87433 18.3138C7.87433 18.1058 7.94633 17.9298 8.09033 17.7858C8.24233 17.6338 8.43033 17.5578 8.65433 17.5578C8.87833 17.5578 9.06233 17.6298 9.20633 17.7738C9.35833 17.9098 9.43433 18.0818 9.43433 18.2898C9.43433 18.5058 9.35833 18.6898 9.20633 18.8418C9.06233 18.9858 8.87833 19.0578 8.65433 19.0578ZM17.5139 20.2818V25.7778C17.5139 26.8898 17.2379 27.7098 16.6859 28.2378C16.1339 28.7738 15.3099 29.0418 14.2139 29.0418C13.6139 29.0418 13.0419 28.9578 12.4979 28.7898C11.9539 28.6298 11.5139 28.3978 11.1779 28.0938L11.7299 27.2058C12.0259 27.4618 12.3899 27.6618 12.8219 27.8058C13.2619 27.9578 13.7139 28.0338 14.1779 28.0338C14.9219 28.0338 15.4699 27.8578 15.8219 27.5058C16.1819 27.1538 16.3619 26.6178 16.3619 25.8978V25.3938C16.0899 25.7218 15.7539 25.9698 15.3539 26.1378C14.9619 26.2978 14.5339 26.3778 14.0699 26.3778C13.4619 26.3778 12.9099 26.2498 12.4139 25.9938C11.9259 25.7298 11.5419 25.3658 11.2619 24.9018C10.9819 24.4298 10.8419 23.8938 10.8419 23.2938C10.8419 22.6938 10.9819 22.1618 11.2619 21.6978C11.5419 21.2258 11.9259 20.8618 12.4139 20.6058C12.9099 20.3498 13.4619 20.2218 14.0699 20.2218C14.5499 20.2218 14.9939 20.3098 15.4019 20.4858C15.8179 20.6618 16.1579 20.9218 16.4219 21.2658V20.2818H17.5139ZM14.2019 25.3698C14.6179 25.3698 14.9899 25.2818 15.3179 25.1058C15.6539 24.9298 15.9139 24.6858 16.0979 24.3738C16.2899 24.0538 16.3859 23.6938 16.3859 23.2938C16.3859 22.6778 16.1819 22.1818 15.7739 21.8058C15.3659 21.4218 14.8419 21.2298 14.2019 21.2298C13.5539 21.2298 13.0259 21.4218 12.6179 21.8058C12.2099 22.1818 12.0059 22.6778 12.0059 23.2938C12.0059 23.6938 12.0979 24.0538 12.2819 24.3738C12.4739 24.6858 12.7339 24.9298 13.0619 25.1058C13.3979 25.2818 13.7779 25.3698 14.2019 25.3698ZM23.111 20.2218C23.919 20.2218 24.559 20.4578 25.031 20.9298C25.511 21.3938 25.751 22.0778 25.751 22.9818V26.6418H24.599V23.1138C24.599 22.4978 24.451 22.0338 24.155 21.7218C23.859 21.4098 23.435 21.2538 22.883 21.2538C22.259 21.2538 21.767 21.4378 21.407 21.8058C21.047 22.1658 20.867 22.6858 20.867 23.3658V26.6418H19.715V17.7378H20.867V21.1818C21.107 20.8778 21.419 20.6418 21.803 20.4738C22.195 20.3058 22.631 20.2218 23.111 20.2218ZM31.459 26.2698C31.291 26.4138 31.083 26.5258 30.835 26.6058C30.587 26.6778 30.331 26.7138 30.067 26.7138C29.427 26.7138 28.931 26.5418 28.579 26.1978C28.227 25.8538 28.051 25.3618 28.051 24.7218V21.2298H26.971V20.2818H28.051V18.8898H29.203V20.2818H31.027V21.2298H29.203V24.6738C29.203 25.0178 29.287 25.2818 29.455 25.4658C29.631 25.6498 29.879 25.7418 30.199 25.7418C30.551 25.7418 30.851 25.6418 31.099 25.4418L31.459 26.2698ZM34.6758 26.7138C34.1558 26.7138 33.6558 26.6458 33.1758 26.5098C32.6958 26.3658 32.3198 26.1858 32.0478 25.9698L32.5278 25.0578C32.8078 25.2578 33.1478 25.4178 33.5478 25.5378C33.9478 25.6578 34.3518 25.7178 34.7598 25.7178C35.7678 25.7178 36.2718 25.4298 36.2718 24.8538C36.2718 24.6618 36.2038 24.5098 36.0678 24.3978C35.9318 24.2858 35.7598 24.2058 35.5518 24.1578C35.3518 24.1018 35.0638 24.0418 34.6878 23.9778C34.1758 23.8978 33.7558 23.8058 33.4278 23.7018C33.1078 23.5978 32.8318 23.4218 32.5998 23.1738C32.3678 22.9258 32.2518 22.5778 32.2518 22.1298C32.2518 21.5538 32.4918 21.0938 32.9718 20.7498C33.4518 20.3978 34.0958 20.2218 34.9038 20.2218C35.3278 20.2218 35.7518 20.2738 36.1758 20.3778C36.5998 20.4818 36.9478 20.6218 37.2198 20.7978L36.7278 21.7098C36.2078 21.3738 35.5958 21.2058 34.8918 21.2058C34.4038 21.2058 34.0318 21.2858 33.7758 21.4458C33.5198 21.6058 33.3918 21.8178 33.3918 22.0818C33.3918 22.2898 33.4638 22.4538 33.6078 22.5738C33.7518 22.6938 33.9278 22.7818 34.1358 22.8378C34.3518 22.8938 34.6518 22.9578 35.0358 23.0298C35.5478 23.1178 35.9598 23.2138 36.2718 23.3178C36.5918 23.4138 36.8638 23.5818 37.0878 23.8218C37.3118 24.0618 37.4238 24.3978 37.4238 24.8298C37.4238 25.4058 37.1758 25.8658 36.6798 26.2098C36.1918 26.5458 35.5238 26.7138 34.6758 26.7138ZM43.1901 21.3498C43.3901 20.9818 43.6861 20.7018 44.0781 20.5098C44.4701 20.3178 44.9461 20.2218 45.5061 20.2218V21.3378C45.4421 21.3298 45.3541 21.3258 45.2421 21.3258C44.6181 21.3258 44.1261 21.5138 43.7661 21.8898C43.4141 22.2578 43.2381 22.7858 43.2381 23.4738V26.6418H42.0861V20.2818H43.1901V21.3498ZM52.6154 23.4978C52.6154 23.5858 52.6074 23.7018 52.5914 23.8458H47.4314C47.5034 24.4058 47.7474 24.8578 48.1634 25.2018C48.5874 25.5378 49.1114 25.7058 49.7354 25.7058C50.4954 25.7058 51.1074 25.4498 51.5714 24.9378L52.2074 25.6818C51.9194 26.0178 51.5594 26.2738 51.1274 26.4498C50.7034 26.6258 50.2274 26.7138 49.6994 26.7138C49.0274 26.7138 48.4314 26.5778 47.9114 26.3058C47.3914 26.0258 46.9874 25.6378 46.6994 25.1418C46.4194 24.6458 46.2794 24.0858 46.2794 23.4618C46.2794 22.8458 46.4154 22.2898 46.6874 21.7938C46.9674 21.2978 47.3474 20.9138 47.8274 20.6418C48.3154 20.3618 48.8634 20.2218 49.4714 20.2218C50.0794 20.2218 50.6194 20.3618 51.0914 20.6418C51.5714 20.9138 51.9434 21.2978 52.2074 21.7938C52.4794 22.2898 52.6154 22.8578 52.6154 23.4978ZM49.4714 21.1938C48.9194 21.1938 48.4554 21.3618 48.0794 21.6978C47.7114 22.0338 47.4954 22.4738 47.4314 23.0178H51.5114C51.4474 22.4818 51.2274 22.0458 50.8514 21.7098C50.4834 21.3658 50.0234 21.1938 49.4714 21.1938ZM56.039 26.7138C55.519 26.7138 55.019 26.6458 54.539 26.5098C54.059 26.3658 53.683 26.1858 53.411 25.9698L53.891 25.0578C54.171 25.2578 54.511 25.4178 54.911 25.5378C55.311 25.6578 55.715 25.7178 56.123 25.7178C57.131 25.7178 57.635 25.4298 57.635 24.8538C57.635 24.6618 57.567 24.5098 57.431 24.3978C57.295 24.2858 57.123 24.2058 56.915 24.1578C56.715 24.1018 56.427 24.0418 56.051 23.9778C55.539 23.8978 55.119 23.8058 54.791 23.7018C54.471 23.5978 54.195 23.4218 53.963 23.1738C53.731 22.9258 53.615 22.5778 53.615 22.1298C53.615 21.5538 53.855 21.0938 54.335 20.7498C54.815 20.3978 55.459 20.2218 56.267 20.2218C56.691 20.2218 57.115 20.2738 57.539 20.3778C57.963 20.4818 58.311 20.6218 58.583 20.7978L58.091 21.7098C57.571 21.3738 56.959 21.2058 56.255 21.2058C55.767 21.2058 55.395 21.2858 55.139 21.4458C54.883 21.6058 54.755 21.8178 54.755 22.0818C54.755 22.2898 54.827 22.4538 54.971 22.5738C55.115 22.6938 55.291 22.7818 55.499 22.8378C55.715 22.8938 56.015 22.9578 56.399 23.0298C56.911 23.1178 57.323 23.2138 57.635 23.3178C57.955 23.4138 58.227 23.5818 58.451 23.8218C58.675 24.0618 58.787 24.3978 58.787 24.8298C58.787 25.4058 58.539 25.8658 58.043 26.2098C57.555 26.5458 56.887 26.7138 56.039 26.7138ZM65.9748 23.4978C65.9748 23.5858 65.9668 23.7018 65.9508 23.8458H60.7908C60.8628 24.4058 61.1068 24.8578 61.5228 25.2018C61.9468 25.5378 62.4708 25.7058 63.0948 25.7058C63.8548 25.7058 64.4668 25.4498 64.9308 24.9378L65.5668 25.6818C65.2788 26.0178 64.9188 26.2738 64.4868 26.4498C64.0628 26.6258 63.5868 26.7138 63.0588 26.7138C62.3868 26.7138 61.7908 26.5778 61.2708 26.3058C60.7508 26.0258 60.3468 25.6378 60.0588 25.1418C59.7788 24.6458 59.6388 24.0858 59.6388 23.4618C59.6388 22.8458 59.7748 22.2898 60.0468 21.7938C60.3268 21.2978 60.7068 20.9138 61.1868 20.6418C61.6748 20.3618 62.2228 20.2218 62.8308 20.2218C63.4388 20.2218 63.9788 20.3618 64.4508 20.6418C64.9308 20.9138 65.3028 21.2978 65.5668 21.7938C65.8388 22.2898 65.9748 22.8578 65.9748 23.4978ZM62.8308 21.1938C62.2788 21.1938 61.8148 21.3618 61.4388 21.6978C61.0708 22.0338 60.8548 22.4738 60.7908 23.0178H64.8708C64.8068 22.4818 64.5868 22.0458 64.2108 21.7098C63.8428 21.3658 63.3828 21.1938 62.8308 21.1938ZM68.6784 21.3498C68.8784 20.9818 69.1744 20.7018 69.5664 20.5098C69.9584 20.3178 70.4344 20.2218 70.9944 20.2218V21.3378C70.9304 21.3298 70.8424 21.3258 70.7304 21.3258C70.1064 21.3258 69.6144 21.5138 69.2544 21.8898C68.9024 22.2578 68.7264 22.7858 68.7264 23.4738V26.6418H67.5744V20.2818H68.6784V21.3498ZM78.3001 20.2818L75.5161 26.6418H74.3401L71.5561 20.2818H72.7561L74.9401 25.3818L77.1721 20.2818H78.3001ZM84.9474 23.4978C84.9474 23.5858 84.9394 23.7018 84.9234 23.8458H79.7634C79.8354 24.4058 80.0794 24.8578 80.4954 25.2018C80.9194 25.5378 81.4434 25.7058 82.0674 25.7058C82.8274 25.7058 83.4394 25.4498 83.9034 24.9378L84.5394 25.6818C84.2514 26.0178 83.8914 26.2738 83.4594 26.4498C83.0354 26.6258 82.5594 26.7138 82.0314 26.7138C81.3594 26.7138 80.7634 26.5778 80.2434 26.3058C79.7234 26.0258 79.3194 25.6378 79.0314 25.1418C78.7514 24.6458 78.6114 24.0858 78.6114 23.4618C78.6114 22.8458 78.7474 22.2898 79.0194 21.7938C79.2994 21.2978 79.6794 20.9138 80.1594 20.6418C80.6474 20.3618 81.1954 20.2218 81.8034 20.2218C82.4114 20.2218 82.9514 20.3618 83.4234 20.6418C83.9034 20.9138 84.2754 21.2978 84.5394 21.7938C84.8114 22.2898 84.9474 22.8578 84.9474 23.4978ZM81.8034 21.1938C81.2514 21.1938 80.7874 21.3618 80.4114 21.6978C80.0434 22.0338 79.8274 22.4738 79.7634 23.0178H83.8434C83.7794 22.4818 83.5594 22.0458 83.1834 21.7098C82.8154 21.3658 82.3554 21.1938 81.8034 21.1938ZM92.5471 17.7378V26.6418H91.4431V25.6338C91.1871 25.9858 90.8631 26.2538 90.4711 26.4378C90.0791 26.6218 89.6471 26.7138 89.1751 26.7138C88.5591 26.7138 88.0071 26.5778 87.5191 26.3058C87.0311 26.0338 86.6471 25.6538 86.3671 25.1658C86.0951 24.6698 85.9591 24.1018 85.9591 23.4618C85.9591 22.8218 86.0951 22.2578 86.3671 21.7698C86.6471 21.2818 87.0311 20.9018 87.5191 20.6298C88.0071 20.3578 88.5591 20.2218 89.1751 20.2218C89.6311 20.2218 90.0511 20.3098 90.4351 20.4858C90.8191 20.6538 91.1391 20.9058 91.3951 21.2418V17.7378H92.5471ZM89.2711 25.7058C89.6711 25.7058 90.0351 25.6138 90.3631 25.4298C90.6911 25.2378 90.9471 24.9738 91.1311 24.6378C91.3151 24.2938 91.4071 23.9018 91.4071 23.4618C91.4071 23.0218 91.3151 22.6338 91.1311 22.2978C90.9471 21.9538 90.6911 21.6898 90.3631 21.5058C90.0351 21.3218 89.6711 21.2298 89.2711 21.2298C88.8631 21.2298 88.4951 21.3218 88.1671 21.5058C87.8471 21.6898 87.5911 21.9538 87.3991 22.2978C87.2151 22.6338 87.1231 23.0218 87.1231 23.4618C87.1231 23.9018 87.2151 24.2938 87.3991 24.6378C87.5911 24.9738 87.8471 25.2378 88.1671 25.4298C88.4951 25.6138 88.8631 25.7058 89.2711 25.7058Z" fill="white"/>
</svg>
