<svg width="379" height="24" viewBox="0 0 379 24" fill="none" xmlns="http://www.w3.org/2000/svg">
<path d="M8.87734 18.7138C13.6533 18.7138 17.3733 14.9698 17.3733 10.1938C17.3733 5.41785 13.7493 1.76985 8.92534 1.76985C4.10134 1.76985 0.429344 5.51384 0.429344 10.2418C0.429344 14.9698 4.10134 18.7138 8.87734 18.7138ZM8.87734 17.6338C4.70134 17.6338 1.55734 14.3698 1.55734 10.2418C1.55734 6.11385 4.70134 2.84984 8.92534 2.84984C13.1493 2.84984 16.2453 6.01785 16.2453 10.1938C16.2453 14.3698 13.0533 17.6338 8.87734 17.6338ZM9.14134 15.1858C10.8453 15.1858 12.2613 14.4178 13.0293 13.2178L11.6613 12.2578C11.0613 13.1458 10.1493 13.5538 9.11734 13.5538C7.29334 13.5538 5.90134 12.2578 5.90134 10.2418C5.90134 8.22585 7.29334 6.92984 9.11734 6.92984C10.1493 6.92984 11.0613 7.33785 11.6613 8.22585L13.0293 7.24185C12.2613 6.06584 10.8453 5.29784 9.14134 5.29784C6.18934 5.29784 4.07734 7.33785 4.07734 10.2418C4.07734 13.1458 6.18934 15.1858 9.14134 15.1858ZM29.3088 16.5538L34.4448 11.6098C36.7248 9.42585 37.2048 7.96185 37.2048 6.32985C37.2048 3.44985 34.9488 1.64985 31.4448 1.64985C28.8288 1.64985 26.5968 2.58584 25.3008 4.19384L26.9328 5.60984C27.9648 4.36185 29.4288 3.78585 31.2288 3.78585C33.5808 3.78585 34.8048 4.84184 34.8048 6.56985C34.8048 7.62585 34.4688 8.68185 32.6928 10.4098L25.8528 17.0098V18.6418H37.9248V16.5538H29.3088ZM46.6918 18.8338C50.6038 18.8338 53.5318 15.7138 53.5318 10.2418C53.5318 4.76985 50.6038 1.64985 46.6918 1.64985C42.7558 1.64985 39.8278 4.76985 39.8278 10.2418C39.8278 15.7138 42.7558 18.8338 46.6918 18.8338ZM46.6918 16.6978C44.0518 16.6978 42.2278 14.5378 42.2278 10.2418C42.2278 5.94584 44.0518 3.78585 46.6918 3.78585C49.3078 3.78585 51.1318 5.94584 51.1318 10.2418C51.1318 14.5378 49.3078 16.6978 46.6918 16.6978ZM58.9573 16.5538L64.0933 11.6098C66.3733 9.42585 66.8533 7.96185 66.8533 6.32985C66.8533 3.44985 64.5973 1.64985 61.0933 1.64985C58.4773 1.64985 56.2453 2.58584 54.9493 4.19384L56.5813 5.60984C57.6133 4.36185 59.0773 3.78585 60.8773 3.78585C63.2293 3.78585 64.4533 4.84184 64.4533 6.56985C64.4533 7.62585 64.1173 8.68185 62.3413 10.4098L55.5013 17.0098V18.6418H67.5733V16.5538H58.9573ZM76.3402 18.8338C80.2522 18.8338 83.1802 15.7138 83.1802 10.2418C83.1802 4.76985 80.2522 1.64985 76.3402 1.64985C72.4042 1.64985 69.4762 4.76985 69.4762 10.2418C69.4762 15.7138 72.4042 18.8338 76.3402 18.8338ZM76.3402 16.6978C73.7002 16.6978 71.8762 14.5378 71.8762 10.2418C71.8762 5.94584 73.7002 3.78585 76.3402 3.78585C78.9562 3.78585 80.7802 5.94584 80.7802 10.2418C80.7802 14.5378 78.9562 16.6978 76.3402 16.6978ZM105.201 18.6418H108.009L100.377 9.40185L107.553 1.84184H104.817L95.6973 11.2258V1.84184H93.2973V18.6418H95.6973V14.2978L98.7693 11.1778L105.201 18.6418ZM114.539 5.80185C112.499 5.80185 110.603 6.37784 109.283 7.43385L110.243 9.16185C111.227 8.32185 112.763 7.79385 114.275 7.79385C116.555 7.79385 117.683 8.92184 117.683 10.8658V11.3218H114.035C110.243 11.3218 108.923 13.0018 108.923 15.0418C108.923 17.2498 110.747 18.7858 113.627 18.7858C115.619 18.7858 117.035 18.1138 117.803 16.9618V18.6418H119.987V10.9618C119.987 7.48184 118.019 5.80185 114.539 5.80185ZM114.011 17.0098C112.259 17.0098 111.203 16.2178 111.203 14.9458C111.203 13.8658 111.851 12.9778 114.131 12.9778H117.683V14.7538C117.107 16.2178 115.739 17.0098 114.011 17.0098ZM127.898 18.7858C131.282 18.7858 133.394 17.3218 133.394 15.0178C133.394 10.0738 125.33 12.5218 125.33 9.52185C125.33 8.51385 126.314 7.76985 128.33 7.76985C129.578 7.76985 130.85 8.03384 132.002 8.77785L132.986 6.95385C131.882 6.23385 130.01 5.80185 128.354 5.80185C125.09 5.80185 123.05 7.33785 123.05 9.61785C123.05 14.6818 131.09 12.2098 131.09 15.0658C131.09 16.1458 130.202 16.7938 128.066 16.7938C126.41 16.7938 124.682 16.2418 123.602 15.4738L122.642 17.2978C123.698 18.1378 125.786 18.7858 127.898 18.7858ZM140.906 5.80185C138.866 5.80185 136.97 6.37784 135.65 7.43385L136.61 9.16185C137.594 8.32185 139.13 7.79385 140.642 7.79385C142.922 7.79385 144.05 8.92184 144.05 10.8658V11.3218H140.402C136.61 11.3218 135.29 13.0018 135.29 15.0418C135.29 17.2498 137.114 18.7858 139.994 18.7858C141.986 18.7858 143.402 18.1138 144.17 16.9618V18.6418H146.354V10.9618C146.354 7.48184 144.386 5.80185 140.906 5.80185ZM140.378 17.0098C138.626 17.0098 137.57 16.2178 137.57 14.9458C137.57 13.8658 138.218 12.9778 140.498 12.9778H144.05V14.7538C143.474 16.2178 142.106 17.0098 140.378 17.0098ZM151.17 18.7858C152.034 18.7858 152.754 18.0898 152.754 17.1298C152.754 16.1698 152.034 15.4978 151.17 15.4978C150.282 15.4978 149.538 16.1698 149.538 17.1298C149.538 18.0898 150.282 18.7858 151.17 18.7858ZM175.388 18.6418H177.908L170.276 1.84184H167.9L160.292 18.6418H162.764L164.612 14.4418H173.54L175.388 18.6418ZM165.452 12.5218L169.076 4.28984L172.7 12.5218H165.452ZM180.079 18.6418H182.383V0.833845H180.079V18.6418ZM186.782 18.6418H189.086V0.833845H186.782V18.6418ZM202.138 8.05785V5.92184H199.93V18.6418H202.234V12.3058C202.234 9.52185 203.77 8.00985 206.242 8.00985C206.41 8.00985 206.578 8.00985 206.77 8.03384V5.80185C204.538 5.80185 202.954 6.56985 202.138 8.05785ZM210.762 3.47385C211.674 3.47385 212.322 2.80185 212.322 1.93784C212.322 1.12185 211.65 0.473845 210.762 0.473845C209.874 0.473845 209.202 1.14584 209.202 1.98585C209.202 2.82584 209.874 3.47385 210.762 3.47385ZM209.61 18.6418H211.914V5.92184H209.61V18.6418ZM226.297 5.92184V7.88985C225.217 6.49784 223.489 5.80185 221.593 5.80185C217.921 5.80185 215.137 8.27385 215.137 11.9458C215.137 15.6178 217.921 18.1138 221.593 18.1138C223.417 18.1138 225.073 17.4658 226.177 16.1458V17.1538C226.177 20.0338 224.809 21.4258 221.809 21.4258C219.937 21.4258 218.089 20.7778 216.913 19.7698L215.809 21.5458C217.201 22.7938 219.553 23.4418 221.881 23.4418C226.201 23.4418 228.481 21.4018 228.481 16.9138V5.92184H226.297ZM221.857 16.0978C219.289 16.0978 217.465 14.3938 217.465 11.9458C217.465 9.47385 219.289 7.81784 221.857 7.81784C224.401 7.81784 226.225 9.47385 226.225 11.9458C226.225 14.3938 224.401 16.0978 221.857 16.0978ZM239.675 5.80185C237.731 5.80185 236.147 6.49784 235.187 7.72185V0.833845H232.883V18.6418H235.187V12.0898C235.187 9.32985 236.771 7.86584 239.219 7.86584C241.403 7.86584 242.651 9.08984 242.651 11.5858V18.6418H244.955V11.3218C244.955 7.57785 242.771 5.80185 239.675 5.80185ZM255.651 16.2418C255.171 16.6258 254.523 16.8418 253.851 16.8418C252.579 16.8418 251.859 16.0738 251.859 14.7058V7.81784H255.507V5.92184H251.859V3.13785H249.555V5.92184H247.395V7.81784H249.555V14.8018C249.555 17.3698 251.019 18.7858 253.587 18.7858C254.619 18.7858 255.675 18.4978 256.371 17.8978L255.651 16.2418ZM262.805 18.7858C266.189 18.7858 268.301 17.3218 268.301 15.0178C268.301 10.0738 260.237 12.5218 260.237 9.52185C260.237 8.51385 261.221 7.76985 263.237 7.76985C264.485 7.76985 265.757 8.03384 266.909 8.77785L267.893 6.95385C266.789 6.23385 264.917 5.80185 263.261 5.80185C259.997 5.80185 257.957 7.33785 257.957 9.61785C257.957 14.6818 265.997 12.2098 265.997 15.0658C265.997 16.1458 265.109 16.7938 262.973 16.7938C261.317 16.7938 259.589 16.2418 258.509 15.4738L257.549 17.2978C258.605 18.1378 260.693 18.7858 262.805 18.7858ZM279.833 8.05785V5.92184H277.625V18.6418H279.929V12.3058C279.929 9.52185 281.465 8.00985 283.937 8.00985C284.105 8.00985 284.273 8.00985 284.465 8.03384V5.80185C282.233 5.80185 280.649 6.56985 279.833 8.05785ZM298.684 12.3538C298.684 8.44185 296.068 5.80185 292.396 5.80185C288.724 5.80185 286.012 8.51385 286.012 12.2818C286.012 16.0738 288.748 18.7858 292.852 18.7858C294.964 18.7858 296.716 18.0658 297.868 16.7218L296.596 15.2338C295.66 16.2658 294.412 16.7698 292.924 16.7698C290.404 16.7698 288.604 15.2818 288.316 13.0498H298.636C298.66 12.8338 298.684 12.5458 298.684 12.3538ZM292.396 7.74585C294.628 7.74585 296.236 9.25784 296.476 11.3938H288.316C288.556 9.23385 290.188 7.74585 292.396 7.74585ZM305.531 18.7858C308.915 18.7858 311.027 17.3218 311.027 15.0178C311.027 10.0738 302.963 12.5218 302.963 9.52185C302.963 8.51385 303.947 7.76985 305.963 7.76985C307.211 7.76985 308.483 8.03384 309.635 8.77785L310.619 6.95385C309.515 6.23385 307.643 5.80185 305.987 5.80185C302.723 5.80185 300.683 7.33785 300.683 9.61785C300.683 14.6818 308.723 12.2098 308.723 15.0658C308.723 16.1458 307.835 16.7938 305.699 16.7938C304.043 16.7938 302.315 16.2418 301.235 15.4738L300.275 17.2978C301.331 18.1378 303.419 18.7858 305.531 18.7858ZM325.403 12.3538C325.403 8.44185 322.787 5.80185 319.115 5.80185C315.443 5.80185 312.731 8.51385 312.731 12.2818C312.731 16.0738 315.467 18.7858 319.571 18.7858C321.683 18.7858 323.435 18.0658 324.587 16.7218L323.315 15.2338C322.379 16.2658 321.131 16.7698 319.643 16.7698C317.123 16.7698 315.323 15.2818 315.035 13.0498H325.355C325.379 12.8338 325.403 12.5458 325.403 12.3538ZM319.115 7.74585C321.347 7.74585 322.955 9.25784 323.195 11.3938H315.035C315.275 9.23385 316.907 7.74585 319.115 7.74585ZM330.81 8.05785V5.92184H328.602V18.6418H330.906V12.3058C330.906 9.52185 332.442 8.00985 334.914 8.00985C335.082 8.00985 335.25 8.00985 335.442 8.03384V5.80185C333.21 5.80185 331.626 6.56985 330.81 8.05785ZM347.797 5.92184L343.333 16.1218L338.965 5.92184H336.565L342.133 18.6418H344.485L350.053 5.92184H347.797ZM363.348 12.3538C363.348 8.44185 360.732 5.80185 357.06 5.80185C353.388 5.80185 350.676 8.51385 350.676 12.2818C350.676 16.0738 353.412 18.7858 357.516 18.7858C359.628 18.7858 361.38 18.0658 362.532 16.7218L361.26 15.2338C360.324 16.2658 359.076 16.7698 357.588 16.7698C355.068 16.7698 353.268 15.2818 352.98 13.0498H363.3C363.324 12.8338 363.348 12.5458 363.348 12.3538ZM357.06 7.74585C359.292 7.74585 360.9 9.25784 361.14 11.3938H352.98C353.22 9.23385 354.852 7.74585 357.06 7.74585ZM376.243 0.833845V7.84185C375.187 6.47385 373.603 5.80185 371.803 5.80185C368.083 5.80185 365.371 8.39385 365.371 12.2818C365.371 16.1698 368.083 18.7858 371.803 18.7858C373.675 18.7858 375.307 18.0658 376.339 16.6258V18.6418H378.547V0.833845H376.243ZM371.995 16.7698C369.547 16.7698 367.699 14.9938 367.699 12.2818C367.699 9.56985 369.547 7.81784 371.995 7.81784C374.419 7.81784 376.267 9.56985 376.267 12.2818C376.267 14.9938 374.419 16.7698 371.995 16.7698Z" fill="white"/>
</svg>
